<svg width="1200" height="760" viewBox="0 0 1200 760" fill="none" xmlns="http://www.w3.org/2000/svg" role="img" aria-labelledby="title desc">
  <title id="title">CityPulse Control Room preview</title>
  <desc id="desc">A city intelligence dashboard with map, weather, traffic index, and live signals.</desc>
  <defs>
    <linearGradient id="bg" x1="0" y1="0" x2="1200" y2="760" gradientUnits="userSpaceOnUse">
      <stop stop-color="#061018"/>
      <stop offset=".52" stop-color="#12384A"/>
      <stop offset="1" stop-color="#0F766E"/>
    </linearGradient>
    <filter id="shadow" x="70" y="58" width="1060" height="656" filterUnits="userSpaceOnUse" color-interpolation-filters="sRGB">
      <feDropShadow dx="0" dy="24" stdDeviation="34" flood-color="#020617" flood-opacity=".42"/>
    </filter>
  </defs>
  <rect width="1200" height="760" fill="url(#bg)"/>
  <g opacity=".16" stroke="#BAE6FD" stroke-width="2">
    <path d="M0 180H1200"/>
    <path d="M0 320H1200"/>
    <path d="M0 460H1200"/>
    <path d="M0 600H1200"/>
    <path d="M160 0V760"/>
    <path d="M340 0V760"/>
    <path d="M520 0V760"/>
    <path d="M700 0V760"/>
    <path d="M880 0V760"/>
    <path d="M1060 0V760"/>
  </g>
  <path d="M0 596C144 516 300 636 456 560C620 480 671 360 835 365C995 369 1060 456 1200 420V760H0V596Z" fill="#38BDF8" opacity=".18"/>

  <g filter="url(#shadow)">
    <rect x="116" y="92" width="968" height="576" rx="20" fill="#F8FAFC"/>
    <rect x="116" y="92" width="968" height="78" rx="20" fill="#0F172A"/>
    <text x="166" y="143" fill="#F8FAFC" font-family="Inter, Arial, sans-serif" font-size="32" font-weight="900">CityPulse Control Room</text>
    <rect x="870" y="116" width="152" height="34" rx="17" fill="#14B8A6"/>
    <text x="908" y="138" fill="#052E16" font-family="Inter, Arial, sans-serif" font-size="14" font-weight="900">LIVE</text>

    <rect x="160" y="216" width="540" height="334" rx="18" fill="#DFF7EF"/>
    <path d="M190 496L310 390L434 438L548 304L672 358" stroke="#0F766E" stroke-width="18" stroke-linecap="round" stroke-linejoin="round" opacity=".45"/>
    <path d="M208 288H648M208 358H648M208 428H648M284 240V520M402 240V520M520 240V520" stroke="#94A3B8" stroke-width="4" opacity=".35"/>
    <circle cx="454" cy="382" r="30" fill="#0EA5E9" stroke="#F8FAFC" stroke-width="10"/>
    <rect x="196" y="244" width="168" height="52" rx="12" fill="#FFFFFF"/>
    <text x="220" y="277" fill="#0F172A" font-family="Inter, Arial, sans-serif" font-size="18" font-weight="900">Zurich</text>

    <rect x="738" y="216" width="300" height="122" rx="18" fill="#0F172A"/>
    <text x="768" y="258" fill="#CBD5E1" font-family="Inter, Arial, sans-serif" font-size="16" font-weight="800">Temperature</text>
    <text x="768" y="312" fill="#F8FAFC" font-family="Inter, Arial, sans-serif" font-size="58" font-weight="900">18°C</text>
    <circle cx="974" cy="274" r="36" fill="#FACC15"/>

    <rect x="738" y="364" width="300" height="122" rx="18" fill="#FFFFFF" stroke="#E2E8F0"/>
    <text x="768" y="406" fill="#334155" font-family="Inter, Arial, sans-serif" font-size="16" font-weight="800">Traffic Index</text>
    <rect x="768" y="436" width="214" height="16" rx="8" fill="#E2E8F0"/>
    <rect x="768" y="436" width="138" height="16" rx="8" fill="#F59E0B"/>
    <text x="768" y="472" fill="#0F172A" font-family="Inter, Arial, sans-serif" font-size="28" font-weight="900">64 / 100</text>

    <rect x="160" y="584" width="878" height="48" rx="12" fill="#0F172A"/>
    <rect x="190" y="602" width="190" height="12" rx="6" fill="#14B8A6"/>
    <rect x="410" y="602" width="150" height="12" rx="6" fill="#38BDF8"/>
    <rect x="590" y="602" width="220" height="12" rx="6" fill="#A78BFA"/>
    <rect x="840" y="602" width="150" height="12" rx="6" fill="#F59E0B"/>
  </g>
</svg>
