<svg width="1200" height="760" viewBox="0 0 1200 760" fill="none" xmlns="http://www.w3.org/2000/svg" role="img" aria-labelledby="title desc">
  <title id="title">Noten-Optimizer Pro dashboard preview</title>
  <desc id="desc">A clean grade planning dashboard with charts, subject cards, and a study calendar.</desc>
  <defs>
    <linearGradient id="bg" x1="0" y1="0" x2="1200" y2="760" gradientUnits="userSpaceOnUse">
      <stop stop-color="#0F172A"/>
      <stop offset=".45" stop-color="#123D51"/>
      <stop offset="1" stop-color="#0B6B58"/>
    </linearGradient>
    <linearGradient id="panel" x1="150" y1="95" x2="1040" y2="668" gradientUnits="userSpaceOnUse">
      <stop stop-color="#F8FAFC"/>
      <stop offset="1" stop-color="#DFF7EF"/>
    </linearGradient>
    <filter id="shadow" x="84" y="64" width="1032" height="660" filterUnits="userSpaceOnUse" color-interpolation-filters="sRGB">
      <feDropShadow dx="0" dy="24" stdDeviation="34" flood-color="#020617" flood-opacity=".35"/>
    </filter>
  </defs>
  <rect width="1200" height="760" fill="url(#bg)"/>
  <path d="M0 602C146 524 271 642 428 572C584 502 597 365 760 346C939 325 1033 437 1200 355V760H0V602Z" fill="#5EEAD4" opacity=".16"/>
  <path d="M0 118C203 28 391 175 560 112C763 37 943 30 1200 126V0H0V118Z" fill="#A7F3D0" opacity=".12"/>

  <g filter="url(#shadow)">
    <rect x="128" y="94" width="944" height="572" rx="18" fill="url(#panel)"/>
    <rect x="128" y="94" width="944" height="68" rx="18" fill="#F8FAFC"/>
    <circle cx="168" cy="128" r="10" fill="#F43F5E"/>
    <circle cx="200" cy="128" r="10" fill="#F59E0B"/>
    <circle cx="232" cy="128" r="10" fill="#10B981"/>
    <rect x="290" y="116" width="260" height="24" rx="12" fill="#E2E8F0"/>
    <text x="314" y="133" fill="#334155" font-family="Inter, Arial, sans-serif" font-size="15" font-weight="700">noten-optimizer-pro.app</text>

    <rect x="172" y="206" width="270" height="152" rx="16" fill="#FFFFFF"/>
    <text x="196" y="242" fill="#0F172A" font-family="Inter, Arial, sans-serif" font-size="20" font-weight="800">Durchschnitt</text>
    <text x="196" y="306" fill="#059669" font-family="Inter, Arial, sans-serif" font-size="70" font-weight="900">5.43</text>
    <rect x="196" y="322" width="202" height="12" rx="6" fill="#D1FAE5"/>
    <rect x="196" y="322" width="166" height="12" rx="6" fill="#10B981"/>

    <rect x="476" y="206" width="552" height="152" rx="16" fill="#FFFFFF"/>
    <polyline points="512,316 588,278 658,292 728,242 810,266 884,224 988,236" stroke="#4F46E5" stroke-width="10" stroke-linecap="round" stroke-linejoin="round"/>
    <polyline points="512,326 588,318 658,328 728,294 810,306 884,284 988,286" stroke="#14B8A6" stroke-width="8" stroke-linecap="round" stroke-linejoin="round" opacity=".75"/>
    <line x1="512" y1="326" x2="988" y2="326" stroke="#CBD5E1" stroke-width="2"/>
    <line x1="512" y1="246" x2="988" y2="246" stroke="#E2E8F0" stroke-width="2"/>
    <text x="512" y="242" fill="#0F172A" font-family="Inter, Arial, sans-serif" font-size="20" font-weight="800">Was-waere-wenn Simulation</text>

    <rect x="172" y="394" width="200" height="176" rx="16" fill="#FFFFFF"/>
    <text x="196" y="430" fill="#0F172A" font-family="Inter, Arial, sans-serif" font-size="18" font-weight="800">Mathematik</text>
    <text x="196" y="486" fill="#4F46E5" font-family="Inter, Arial, sans-serif" font-size="52" font-weight="900">5.1</text>
    <rect x="196" y="510" width="136" height="10" rx="5" fill="#C7D2FE"/>

    <rect x="398" y="394" width="200" height="176" rx="16" fill="#FFFFFF"/>
    <text x="422" y="430" fill="#0F172A" font-family="Inter, Arial, sans-serif" font-size="18" font-weight="800">Deutsch</text>
    <text x="422" y="486" fill="#0891B2" font-family="Inter, Arial, sans-serif" font-size="52" font-weight="900">5.6</text>
    <rect x="422" y="510" width="150" height="10" rx="5" fill="#A5F3FC"/>

    <rect x="624" y="394" width="404" height="176" rx="16" fill="#0F172A"/>
    <text x="654" y="430" fill="#F8FAFC" font-family="Inter, Arial, sans-serif" font-size="20" font-weight="900">Lernplan</text>
    <rect x="654" y="456" width="92" height="72" rx="12" fill="#22C55E"/>
    <rect x="766" y="456" width="92" height="72" rx="12" fill="#38BDF8"/>
    <rect x="878" y="456" width="92" height="72" rx="12" fill="#A78BFA"/>
    <text x="681" y="500" fill="#052E16" font-family="Inter, Arial, sans-serif" font-size="24" font-weight="900">Mo</text>
    <text x="793" y="500" fill="#082F49" font-family="Inter, Arial, sans-serif" font-size="24" font-weight="900">Mi</text>
    <text x="909" y="500" fill="#2E1065" font-family="Inter, Arial, sans-serif" font-size="24" font-weight="900">Fr</text>
    <text x="654" y="554" fill="#CBD5E1" font-family="Inter, Arial, sans-serif" font-size="16" font-weight="700">ICS Export bereit</text>
  </g>
</svg>
